# xmcd
#
# Track frame offsets: 
#        150
#        13940
#        35747
#        52932
#        66537
#        78830
#        90962
#        106090
#        126190
#        141340
#        156450
#        171250
#        183160
#        195165
#
# Disc length: 2833 seconds
#
# Revision: 0
# Processed by: cddbd v1.5.1PL2 Copyright (c) Steve Scherf et al.
# Submitted via: ExactAudioCopy v0.95b4
#
DISCID=b60b0f0e
DTITLE=อบเชย  เวียงพิงค์ and วีระศักดิ์ - แอ่วเมืองเหนือ
DYEAR=2001
DGENRE=Country
TTITLE0=สาวจี้
TTITLE1=แอ่วเมืองเหนือ
TTITLE2=อยู่แป๋ดอย
TTITLE3=ชอบมองๆ 
TTITLE4=จุ๊หมาน้อยขึ้นดอย
TTITLE5=จ้างมันเต๊อะ
TTITLE6=อ้ายอยู่ตี้ไหน
TTITLE7=หมู่เฮา
TTITLE8=สักดิ์ศรีสาวเหนือ
TTITLE9=อ้ายบ่ลืมแต๊กๆ 
TTITLE10=ตำเหินลา
TTITLE11=ดำหัวปี๋ใหม่
TTITLE12=ตำหัวปี๋ใหม่(ช)
TTITLE13=แอ่วปีไหม่เมือง
EXTD=
EXTT0=
EXTT1=
EXTT2=
EXTT3=
EXTT4=
EXTT5=
EXTT6=
EXTT7=
EXTT8=
EXTT9=
EXTT10=
EXTT11=
EXTT12=
EXTT13=
PLAYORDER=
